<svg width="45" height="45" viewBox="0 0 45 45" fill="none" xmlns="http://www.w3.org/2000/svg">
<circle cx="22.5" cy="22.5" r="22.5" fill="#FFC700"/>
<path d="M25.9125 16.2878C26.985 16.2878 27.8625 15.458 27.8625 14.4439C27.8625 13.4297 26.985 12.6 25.9125 12.6C24.84 12.6 23.9625 13.4297 23.9625 14.4439C23.9625 15.458 24.84 16.2878 25.9125 16.2878ZM15.675 22.2805C12.945 22.2805 10.8 24.3088 10.8 26.8902C10.8 29.4717 12.945 31.5 15.675 31.5C18.405 31.5 20.55 29.4717 20.55 26.8902C20.55 24.3088 18.405 22.2805 15.675 22.2805ZM15.675 30.117C13.8225 30.117 12.2625 28.6419 12.2625 26.8902C12.2625 25.1385 13.8225 23.6634 15.675 23.6634C17.5275 23.6634 19.0875 25.1385 19.0875 26.8902C19.0875 28.6419 17.5275 30.117 15.675 30.117ZM21.33 20.8975L23.67 18.6849L24.45 19.4224C25.7175 20.621 27.375 21.3585 29.4225 21.3585V19.5146C27.96 19.5146 26.79 18.9614 25.9125 18.1317L24.06 16.38C23.5725 16.0112 23.085 15.8268 22.5 15.8268C21.915 15.8268 21.4275 16.0112 21.135 16.38L18.405 18.9614C18.015 19.3302 17.82 19.7912 17.82 20.2522C17.82 20.8053 18.015 21.2663 18.405 21.5429L21.525 24.1244V28.7341H23.475V23.018L21.33 20.8975ZM29.325 22.2805C26.595 22.2805 24.45 24.3088 24.45 26.8902C24.45 29.4717 26.595 31.5 29.325 31.5C32.055 31.5 34.2 29.4717 34.2 26.8902C34.2 24.3088 32.055 22.2805 29.325 22.2805ZM29.325 30.117C27.4725 30.117 25.9125 28.6419 25.9125 26.8902C25.9125 25.1385 27.4725 23.6634 29.325 23.6634C31.1775 23.6634 32.7375 25.1385 32.7375 26.8902C32.7375 28.6419 31.1775 30.117 29.325 30.117Z" fill="white"/>
</svg>
