<svg width="16" height="20" viewBox="0 0 16 20" xmlns="http://www.w3.org/2000/svg">
<path d="M15.5556 3.75V15C15.5556 15.8875 15.1009 16.7 14.359 17.15V19.0625C14.359 19.575 13.9521 20 13.4615 20H12.8632C12.3726 20 11.9658 19.575 11.9658 19.0625V17.5H3.58974V19.0625C3.58974 19.575 3.18291 20 2.69231 20H2.09402C1.60342 20 1.19658 19.575 1.19658 19.0625V17.15C0.466667 16.7 0 15.8875 0 15V3.75C0 0 3.58974 0 7.77778 0C11.9658 0 15.5556 0 15.5556 3.75ZM4.78632 13.75C4.78632 13.0625 4.24786 12.5 3.58974 12.5C2.93162 12.5 2.39316 13.0625 2.39316 13.75C2.39316 14.4375 2.93162 15 3.58974 15C4.24786 15 4.78632 14.4375 4.78632 13.75ZM13.1624 13.75C13.1624 13.0625 12.6239 12.5 11.9658 12.5C11.3077 12.5 10.7692 13.0625 10.7692 13.75C10.7692 14.4375 11.3077 15 11.9658 15C12.6239 15 13.1624 14.4375 13.1624 13.75ZM13.1624 3.75H2.39316V10.6452H13.1624V3.75Z"/>
</svg>
