<svg width="45" height="45" viewBox="0 0 45 45" fill="none" xmlns="http://www.w3.org/2000/svg">
<circle cx="22.5" cy="22.5" r="22.5" fill="#4F86D8"/>
<path d="M25.575 29.25H14.075C13.7573 29.25 13.5 29.5017 13.5 29.8125V30.9375C13.5 31.2483 13.7573 31.5 14.075 31.5H25.575C25.8927 31.5 26.15 31.2483 26.15 30.9375V29.8125C26.15 29.5017 25.8927 29.25 25.575 29.25ZM33.05 18V16.3125C33.05 16.0017 32.7927 15.75 32.475 15.75C32.1573 15.75 31.9 16.0017 31.9 16.3125V18H30.75V16.3125C30.75 16.0017 30.4927 15.75 30.175 15.75C29.8573 15.75 29.6 16.0017 29.6 16.3125V18H29.025C28.7073 18 28.45 18.2517 28.45 18.5625V19.6875C28.45 20.9447 29.2988 21.9969 30.4625 22.3569V26.5226C30.4625 27.013 30.1211 27.469 29.6266 27.5488C28.997 27.6504 28.45 27.1754 28.45 26.5781V25.5938C28.45 23.8852 27.0341 22.5 25.2875 22.5H25V15.75C25 14.5072 23.9704 13.5 22.7 13.5H16.95C15.6796 13.5 14.65 14.5072 14.65 15.75V28.125H25V24.1875H25.2875C26.0814 24.1875 26.725 24.8171 26.725 25.5938V26.4589C26.725 27.8536 27.7643 29.1013 29.1835 29.2366C30.8115 29.3924 32.1875 28.1394 32.1875 26.5781V22.3569C33.3512 21.9969 34.2 20.9447 34.2 19.6875V18.5625C34.2 18.2517 33.9427 18 33.625 18H33.05ZM22.847 19.6791L19.4796 24.5658C19.4006 24.6829 19.2565 24.75 19.1062 24.75C18.8306 24.75 18.6222 24.5292 18.6869 24.2958L19.5141 21.375H17.3812C17.1207 21.375 16.9195 21.1785 16.954 20.957L17.529 17.1953C17.5573 17.0121 17.7399 16.875 17.9562 16.875H20.4C20.6832 16.875 20.8895 17.1049 20.8169 17.3394L20.4 19.125H22.4736C22.8057 19.125 23.013 19.4337 22.847 19.6791Z" fill="white"/>
</svg>
