<?xml version="1.0" encoding="UTF-8" standalone="no"?>
<svg
   width="39"
   height="32"
   viewBox="0 0 39 32"
   version="1.1"
   id="svg8"
   sodipodi:docname="home-search.svg"
   inkscape:version="1.1 (ce6663b3b7, 2021-05-25)"
   xmlns:inkscape="http://www.inkscape.org/namespaces/inkscape"
   xmlns:sodipodi="http://sodipodi.sourceforge.net/DTD/sodipodi-0.dtd"
   xmlns="http://www.w3.org/2000/svg"
   xmlns:svg="http://www.w3.org/2000/svg">
  <defs
     id="defs12" />
  <sodipodi:namedview
     id="namedview10"
     pagecolor="#ffffff"
     bordercolor="#666666"
     borderopacity="1.0"
     inkscape:pageshadow="2"
     inkscape:pageopacity="0.0"
     inkscape:pagecheckerboard="0"
     showgrid="false"
     inkscape:zoom="18.561553"
     inkscape:cx="4.8217948"
     inkscape:cy="13.845824"
     inkscape:window-width="1920"
     inkscape:window-height="1019"
     inkscape:window-x="0"
     inkscape:window-y="25"
     inkscape:window-maximized="1"
     inkscape:current-layer="svg8" />
  <path
     style="color:#000000;stroke-linecap:round;stroke-linejoin:round;-inkscape-stroke:none"
     d="M 15.292969,1.2929687 4.4042969,12.181641 1.2929687,15.292969 a 1,1 0 0 0 0,1.414062 1,1 0 0 0 1.4140626,0 l 1.4042968,-1.404297 v 13.142578 c 0,0.677408 0.2690025,1.32763 0.7480469,1.806641 C 5.3383502,30.730879 5.9886059,31 6.6660156,31 h 4.6679684 c 0.677424,0 1.32764,-0.269046 1.806641,-0.748047 0.479001,-0.479001 0.748047,-1.129216 0.748047,-1.806641 v -6.222656 c 0,-0.147611 0.05771,-0.288179 0.162109,-0.392578 0.104399,-0.104398 0.246921,-0.164062 0.394532,-0.164062 h 3.109374 c 0.147611,0 0.290133,0.05966 0.394532,0.164062 0.104398,0.104399 0.162109,0.244967 0.162109,0.392578 v 6.222656 c 0,0.677425 0.269046,1.32764 0.748047,1.806641 C 19.338376,30.730954 19.988592,31 20.666016,31 h 4.667968 c 0.677424,0 1.32764,-0.269046 1.806641,-0.748047 0.479001,-0.479001 0.748047,-1.129216 0.748047,-1.806641 V 15.302734 l 1.404297,1.404297 a 1,1 0 0 0 1.414062,0 1,1 0 0 0 0,-1.414062 L 27.595703,12.181641 16.707031,1.2929687 a 1.0001,1.0001 0 0 0 -1.414062,0 z M 16,3.4140625 25.888672,13.302734 v 15.142578 c 0,0.147776 -0.05771,0.28818 -0.16211,0.392579 C 25.622164,28.942289 25.48176,29 25.333984,29 h -4.667968 c -0.147776,0 -0.28818,-0.05771 -0.392579,-0.162109 -0.104398,-0.104399 -0.162109,-0.244803 -0.162109,-0.392579 v -6.222656 c 0,-0.677388 -0.269046,-1.32764 -0.748047,-1.80664 -0.479001,-0.479001 -1.131205,-0.75 -1.808594,-0.75 h -3.109374 c -0.677389,0 -1.329593,0.270999 -1.808594,0.75 -0.479001,0.479 -0.748047,1.129252 -0.748047,1.80664 v 6.222656 c 0,0.147776 -0.05771,0.28818 -0.162109,0.392579 C 11.622164,28.942289 11.48176,29 11.333984,29 H 6.6660156 C 6.5183061,29 6.3779217,28.942364 6.2734375,28.837891 6.1690425,28.733503 6.1113281,28.593104 6.1113281,28.445312 V 13.302734 Z"
     id="path2" />
  <circle
     cx="28.5"
     cy="14.5"
     r="10.5"
     fill="white"
     id="circle4" />
  <path
     d="M37.7207 22.38L34.5106 19.1794C35.5464 17.8599 36.1083 16.2305 36.1062 14.5531C36.1062 13.0593 35.6633 11.5989 34.8333 10.3568C34.0034 9.11473 32.8237 8.14663 31.4436 7.57495C30.0634 7.00327 28.5447 6.8537 27.0796 7.14513C25.6144 7.43657 24.2686 8.15594 23.2123 9.21226C22.1559 10.2686 21.4366 11.6144 21.1451 13.0796C20.8537 14.5447 21.0033 16.0634 21.575 17.4436C22.1466 18.8237 23.1147 20.0034 24.3568 20.8333C25.5989 21.6633 27.0593 22.1062 28.5531 22.1062C30.2305 22.1083 31.8599 21.5464 33.1794 20.5106L36.38 23.7207C36.4678 23.8092 36.5722 23.8795 36.6873 23.9274C36.8023 23.9753 36.9257 24 37.0504 24C37.175 24 37.2984 23.9753 37.4135 23.9274C37.5285 23.8795 37.633 23.8092 37.7207 23.7207C37.8092 23.633 37.8795 23.5285 37.9274 23.4135C37.9753 23.2984 38 23.175 38 23.0504C38 22.9257 37.9753 22.8023 37.9274 22.6873C37.8795 22.5722 37.8092 22.4678 37.7207 22.38ZM22.8883 14.5531C22.8883 13.4327 23.2205 12.3375 23.843 11.4059C24.4654 10.4743 25.3502 9.74825 26.3853 9.31949C27.4204 8.89074 28.5594 8.77855 29.6583 8.99713C30.7572 9.21571 31.7665 9.75523 32.5588 10.5475C33.351 11.3397 33.8905 12.3491 34.1091 13.448C34.3277 14.5468 34.2155 15.6859 33.7868 16.721C33.358 17.7561 32.6319 18.6408 31.7003 19.2633C30.7688 19.8857 29.6735 20.218 28.5531 20.218C27.0507 20.218 25.6098 19.6211 24.5475 18.5588C23.4851 17.4964 22.8883 16.0555 22.8883 14.5531Z"
     id="path6" />
</svg>
