<svg width="45" height="46" viewBox="0 0 45 46" fill="none" xmlns="http://www.w3.org/2000/svg">
<circle cx="22.5" cy="22.5967" r="21" fill="white" stroke="#C4C4C4" stroke-width="3"/>
<path d="M31.5 15.5654V28.2217C31.5 29.2201 30.9739 30.1342 30.1154 30.6404V32.792C30.1154 33.3686 29.6446 33.8467 29.077 33.8467H28.3846C27.817 33.8467 27.3462 33.3686 27.3462 32.792V31.0342H17.6539V32.792C17.6539 33.3686 17.1831 33.8467 16.6154 33.8467H15.9231C15.3554 33.8467 14.8846 33.3686 14.8846 32.792V30.6404C14.04 30.1342 13.5 29.2201 13.5 28.2217V15.5654C13.5 11.3467 17.6539 11.3467 22.5 11.3467C27.3462 11.3467 31.5 11.3467 31.5 15.5654ZM19.0385 26.8154C19.0385 26.042 18.4154 25.4092 17.6539 25.4092C16.8923 25.4092 16.2693 26.042 16.2693 26.8154C16.2693 27.5889 16.8923 28.2217 17.6539 28.2217C18.4154 28.2217 19.0385 27.5889 19.0385 26.8154ZM28.7308 26.8154C28.7308 26.042 28.1077 25.4092 27.3462 25.4092C26.5846 25.4092 25.9616 26.042 25.9616 26.8154C25.9616 27.5889 26.5846 28.2217 27.3462 28.2217C28.1077 28.2217 28.7308 27.5889 28.7308 26.8154ZM28.7308 15.5654H16.2693V23.3225H28.7308V15.5654Z" fill="#C4C4C4"/>
</svg>
