<svg width="17" height="20" viewBox="0 0 17 20" fill="none" xmlns="http://www.w3.org/2000/svg">
<path d="M0 14.7368C0 15.6632 0.39375 16.4947 1.00962 17.0737V20H4.03846V17.8947H12.1154V20H15.1442V17.0737C15.7601 16.4947 16.1538 15.6632 16.1538 14.7368V4.21053C16.1538 0.526316 12.5394 0 8.07692 0C3.61442 0 0 0.526316 0 4.21053V14.7368ZM3.53365 15.7895C2.69567 15.7895 2.01923 15.0842 2.01923 14.2105C2.01923 13.3368 2.69567 12.6316 3.53365 12.6316C4.37163 12.6316 5.04808 13.3368 5.04808 14.2105C5.04808 15.0842 4.37163 15.7895 3.53365 15.7895ZM12.6202 15.7895C11.7822 15.7895 11.1058 15.0842 11.1058 14.2105C11.1058 13.3368 11.7822 12.6316 12.6202 12.6316C13.4582 12.6316 14.1346 13.3368 14.1346 14.2105C14.1346 15.0842 13.4582 15.7895 12.6202 15.7895ZM14.1346 9.47368H2.01923V4.21053H14.1346V9.47368Z" fill="#C22604"/>
</svg>
