<svg width="45" height="45" viewBox="0 0 45 45" fill="none" xmlns="http://www.w3.org/2000/svg">
<circle cx="22.5" cy="22.5" r="21" fill="white" stroke="#C4C4C4" stroke-width="3"/>
<path d="M17.6413 29.2276H25.57V28.1233C25.57 25.6829 27.5467 23.7062 29.9872 23.7062H30.8043L28.7062 14.3861C28.5943 13.8981 28.3206 13.4623 27.9297 13.1495C27.5388 12.8368 27.0535 12.6654 26.5529 12.6634H23.3615C22.7541 12.6634 22.2572 13.1603 22.2572 13.7677C22.2572 14.375 22.7541 14.872 23.3615 14.872H26.5529L28.0988 21.7737H28.0878C26.9046 22.1303 25.8445 22.8104 25.027 23.7371C24.2095 24.6639 23.6671 25.8006 23.4609 27.0191H17.6413C17.3759 26.2666 16.8476 25.6354 16.1536 25.2417C15.4596 24.848 14.6467 24.7184 13.8647 24.8767C12.5616 25.1307 11.5125 26.2019 11.2696 27.5049C11.179 27.984 11.1951 28.4772 11.3169 28.9493C11.4388 29.4214 11.6632 29.8609 11.9743 30.2363C12.2854 30.6117 12.6755 30.9139 13.1168 31.1213C13.5581 31.3287 14.0396 31.4362 14.5272 31.4362C15.9628 31.4362 17.1775 30.5086 17.6413 29.2276ZM14.5272 29.2276C13.9199 29.2276 13.4229 28.7307 13.4229 28.1233C13.4229 27.516 13.9199 27.0191 14.5272 27.0191C15.1346 27.0191 15.6315 27.516 15.6315 28.1233C15.6315 28.7307 15.1346 29.2276 14.5272 29.2276Z" fill="#C4C4C4"/>
<path d="M29.9871 24.8108C28.154 24.8108 26.6743 26.2905 26.6743 28.1236C26.6743 29.9567 28.154 31.4365 29.9871 31.4365C31.8202 31.4365 33.3 29.9567 33.3 28.1236C33.3 26.2905 31.8202 24.8108 29.9871 24.8108ZM29.9871 29.2279C29.3798 29.2279 28.8828 28.731 28.8828 28.1236C28.8828 27.5163 29.3798 27.0193 29.9871 27.0193C30.5945 27.0193 31.0914 27.5163 31.0914 28.1236C31.0914 28.731 30.5945 29.2279 29.9871 29.2279Z" fill="#C4C4C4"/>
</svg>
