<svg width="45" height="45" viewBox="0 0 45 45" fill="none" xmlns="http://www.w3.org/2000/svg">
<circle cx="22.5" cy="22.5" r="22.5" fill="#34D186"/>
<path d="M17.6413 29.2276H25.57V28.1233C25.57 25.6828 27.5467 23.7061 29.9872 23.7061H30.8043L28.7062 14.386C28.5943 13.898 28.3206 13.4622 27.9297 13.1495C27.5388 12.8367 27.0535 12.6654 26.5529 12.6633H23.3615C22.7541 12.6633 22.2572 13.1603 22.2572 13.7676C22.2572 14.375 22.7541 14.8719 23.3615 14.8719H26.5529L28.0988 21.7737H28.0878C26.9046 22.1303 25.8445 22.8103 25.027 23.7371C24.2095 24.6638 23.6671 25.8005 23.4609 27.019H17.6413C17.3759 26.2665 16.8476 25.6353 16.1536 25.2416C15.4596 24.848 14.6467 24.7183 13.8647 24.8767C12.5616 25.1307 11.5125 26.2018 11.2696 27.5049C11.179 27.984 11.1951 28.4771 11.3169 28.9493C11.4388 29.4214 11.6632 29.8608 11.9743 30.2362C12.2854 30.6117 12.6755 30.9139 13.1168 31.1213C13.5581 31.3287 14.0396 31.4362 14.5272 31.4361C15.9628 31.4361 17.1775 30.5085 17.6413 29.2276ZM14.5272 29.2276C13.9199 29.2276 13.4229 28.7306 13.4229 28.1233C13.4229 27.5159 13.9199 27.019 14.5272 27.019C15.1346 27.019 15.6315 27.5159 15.6315 28.1233C15.6315 28.7306 15.1346 29.2276 14.5272 29.2276Z" fill="white"/>
<path d="M29.9871 24.8107C28.154 24.8107 26.6743 26.2904 26.6743 28.1235C26.6743 29.9566 28.154 31.4364 29.9871 31.4364C31.8202 31.4364 33.3 29.9566 33.3 28.1235C33.3 26.2904 31.8202 24.8107 29.9871 24.8107ZM29.9871 29.2278C29.3798 29.2278 28.8828 28.7309 28.8828 28.1235C28.8828 27.5162 29.3798 27.0192 29.9871 27.0192C30.5945 27.0192 31.0914 27.5162 31.0914 28.1235C31.0914 28.7309 30.5945 29.2278 29.9871 29.2278Z" fill="white"/>
</svg>
