<svg width="28" height="27" viewBox="0 0 28 27" xmlns="http://www.w3.org/2000/svg">
<path d="M3.6 18.1053L10.8956 18.1053L9.4357 22.5355C9.1731 23.3355 9.3057 24.2224 9.7932 24.9066C10.2807 25.5908 11.0711 26 11.9044 26L14 26C14.3861 26 14.7514 25.8263 14.9997 25.5263L21.1097 18.1053L24.4 18.1053C25.8339 18.1053 27 16.925 27 15.4737L27 3.63158C27 2.18027 25.8339 1 24.4 1L7.1009 1C6.57195 1.00178 6.05598 1.166 5.62122 1.47095C5.18645 1.77591 4.85337 2.20723 4.666 2.7079L1.0819 12.3803C1.02748 12.528 0.999742 12.6844 1 12.8421L1 15.4737C1 16.925 2.1661 18.1053 3.6 18.1053ZM24.4 15.4737L21.8 15.4737L21.8 3.63158L24.4 3.63158L24.4 15.4737ZM3.6 13.0803L7.1009 3.63158L19.2 3.63158L19.2 16.3132L13.3916 23.3684L11.9018 23.3684L13.9324 17.2066C13.9983 17.0088 14.0167 16.798 13.986 16.5915C13.9554 16.3851 13.8765 16.1891 13.756 16.0197C13.6356 15.8503 13.4769 15.7124 13.2933 15.6174C13.1096 15.5225 12.9062 15.4732 12.7 15.4737L3.6 15.4737L3.6 13.0803Z"/>
</svg>
