<svg width="24" height="25" viewBox="0 0 24 25" fill="none" xmlns="http://www.w3.org/2000/svg">
<path d="M15.4042 0.632583C14.9471 0.213529 14.3459 -0.0128832 13.7259 0.00056668C13.1059 0.0140165 12.5151 0.26629 12.0766 0.704773L0.704889 12.0765C0.481414 12.2999 0.304141 12.5652 0.183196 12.8572C0.0622501 13.1492 0 13.4621 0 13.7781C0 14.0941 0.0622501 14.4071 0.183196 14.699C0.304141 14.991 0.481414 15.2563 0.704889 15.4797L2.29652 17.0714C2.89295 17.6678 3.75064 17.5251 4.25597 17.1865C4.61961 16.9448 5.05569 16.8364 5.49017 16.8798C5.92464 16.9231 6.33073 17.1155 6.63948 17.4242C6.94823 17.733 7.1406 18.1391 7.18392 18.5735C7.22725 19.008 7.11886 19.4441 6.87717 19.8077C6.542 20.3148 6.39762 21.1725 6.99405 21.7689L8.54958 23.3244C8.77733 23.5524 9.04856 23.7323 9.34717 23.8535C9.64578 23.9747 9.96568 24.0346 10.2879 24.0298C10.6101 24.025 10.9281 23.9555 11.223 23.8255C11.5178 23.6955 11.7836 23.5075 12.0044 23.2729L23.3452 11.2205C23.5638 10.9885 23.7341 10.7154 23.8462 10.417C23.9583 10.1186 24.0101 9.80088 23.9984 9.48233C23.9867 9.16378 23.9119 8.85072 23.7782 8.56134C23.6445 8.27196 23.4547 8.01202 23.2197 7.79662L21.6968 6.40094C21.5293 6.25106 21.3291 6.14227 21.1122 6.0832C20.8953 6.02413 20.6677 6.0164 20.4472 6.06061C20.0571 6.12937 19.6875 6.33734 19.4194 6.62954C19.2516 6.8126 19.0493 6.96081 18.8242 7.06571C18.5991 7.17061 18.3556 7.23015 18.1075 7.24092C17.8594 7.2517 17.6116 7.21349 17.3782 7.1285C17.1449 7.04351 16.9305 6.91338 16.7475 6.74556C16.3778 6.40663 16.1579 5.93472 16.1361 5.43364C16.1253 5.18553 16.1635 4.93773 16.2485 4.70438C16.3335 4.47104 16.4636 4.25672 16.6315 4.07366C16.9013 3.78318 17.0749 3.39644 17.111 3.00283C17.1361 2.77948 17.1088 2.55335 17.0312 2.3424C16.9537 2.13145 16.828 1.9415 16.6641 1.78763L15.4042 0.632583Z" fill="#000000"/>
</svg>
