<svg width="32" height="32" viewBox="0 0 32 32" xmlns="http://www.w3.org/2000/svg">
<path d="M23.3333 5.99997C23.5101 5.82316 23.6095 5.58335 23.6095 5.33331C23.6095 5.08326 23.5101 4.84345 23.3333 4.66664L20 1.33331C19.6464 0.979689 19.1667 0.781026 18.6666 0.781026C18.1666 0.781027 17.6869 0.979688 17.3333 1.33331L1.33333 17.3333C0.97971 17.6869 0.781048 18.1665 0.781048 18.6666C0.781048 19.1667 0.97971 19.6463 1.33333 20L4.66666 23.3333C4.84347 23.5101 5.08328 23.6094 5.33333 23.6094C5.58338 23.6094 5.82318 23.5101 5.99999 23.3333C6.35362 22.9797 6.83323 22.781 7.33333 22.781C7.83342 22.781 8.31304 22.9797 8.66666 23.3333C9.02028 23.6869 9.21894 24.1665 9.21894 24.6666C9.21894 25.1667 9.02028 25.6463 8.66666 26C8.48985 26.1768 8.39052 26.4166 8.39052 26.6666C8.39052 26.9167 8.48985 27.1565 8.66666 27.3333L12 30.6666C12.3536 31.0202 12.8332 31.2189 13.3333 31.2189C13.8334 31.2189 14.313 31.0202 14.6667 30.6666L30.6666 14.6666C31.0203 14.313 31.2189 13.8334 31.2189 13.3333C31.2189 12.8332 31.0203 12.3536 30.6666 12L27.3333 8.66664C27.1565 8.48983 26.9167 8.39049 26.6666 8.39049C26.4166 8.39049 26.1768 8.48983 26 8.66664C25.6464 9.02026 25.1667 9.21892 24.6666 9.21892C24.1665 9.21892 23.6869 9.02026 23.3333 8.66664C22.9797 8.31302 22.781 7.8334 22.781 7.3333C22.781 6.83321 22.9797 6.35359 23.3333 5.99997ZM26.58 10.58L29.3333 13.3333L24.6666 18L22.6666 16L21.3333 17.3333L23.3333 19.3333L13.3333 29.3333L10.58 26.58C11.0015 25.8601 11.1725 25.0209 11.0661 24.1935C10.9598 23.3662 10.5822 22.5974 9.99233 22.0076C9.4025 21.4178 8.63376 21.0401 7.80641 20.9338C6.97906 20.8275 6.13981 20.9984 5.41999 21.42L2.66666 18.6666L12.6667 8.66664L14.6667 10.6666L16 9.3333L14 7.3333L18.6666 2.66664L21.42 5.41997C20.9985 6.13979 20.8275 6.97904 20.9338 7.80639C21.0402 8.63373 21.4178 9.40248 22.0076 9.99231C22.5975 10.5821 23.3662 10.9598 24.1936 11.0661C25.0209 11.1724 25.8602 11.0015 26.58 10.58Z"/>
<path d="M16.0001 12.0001L17.3334 10.6668L21.3334 14.6668L20.0001 16.0001L16.0001 12.0001Z"/>
</svg>
