<svg width="32" height="32" viewBox="0 0 32 32" fill="none" xmlns="http://www.w3.org/2000/svg">
<circle cx="16" cy="16" r="15" fill="#77E4D7" stroke="white" stroke-width="2"/>
<path d="M12.0528 21.6232H18.5737V20.7149C18.5737 18.7078 20.1994 17.0821 22.2066 17.0821H22.8787L21.1531 9.41681C21.061 9.01546 20.836 8.65704 20.5144 8.39981C20.1929 8.14258 19.7938 8.00168 19.382 8H16.7573C16.2578 8 15.8491 8.40869 15.8491 8.90821C15.8491 9.40773 16.2578 9.81642 16.7573 9.81642H19.382L20.6535 15.4927H20.6445C19.6713 15.786 18.7994 16.3453 18.1271 17.1075C17.4547 17.8698 17.0086 18.8046 16.8391 19.8067H12.0528C11.8345 19.1879 11.4 18.6687 10.8292 18.345C10.2584 18.0212 9.58987 17.9146 8.9467 18.0448C7.87501 18.2537 7.01221 19.1347 6.81241 20.2064C6.73787 20.6004 6.75116 21.006 6.85135 21.3943C6.95153 21.7826 7.13613 22.144 7.392 22.4528C7.64787 22.7615 7.96869 23.0101 8.33162 23.1806C8.69454 23.3512 9.09062 23.4396 9.49163 23.4396C10.6723 23.4396 11.6713 22.6767 12.0528 21.6232ZM9.49163 21.6232C8.99211 21.6232 8.58342 21.2145 8.58342 20.7149C8.58342 20.2154 8.99211 19.8067 9.49163 19.8067C9.99114 19.8067 10.3998 20.2154 10.3998 20.7149C10.3998 21.2145 9.99114 21.6232 9.49163 21.6232Z" fill="white"/>
<path d="M22.2066 17.9902C20.6989 17.9902 19.4819 19.2072 19.4819 20.7149C19.4819 22.2225 20.6989 23.4395 22.2066 23.4395C23.7142 23.4395 24.9312 22.2225 24.9312 20.7149C24.9312 19.2072 23.7142 17.9902 22.2066 17.9902ZM22.2066 21.6231C21.707 21.6231 21.2984 21.2144 21.2984 20.7149C21.2984 20.2154 21.707 19.8067 22.2066 19.8067C22.7061 19.8067 23.1148 20.2154 23.1148 20.7149C23.1148 21.2144 22.7061 21.6231 22.2066 21.6231Z" fill="white"/>
</svg>
