<?xml version="1.0" encoding="UTF-8" standalone="no"?>
<svg
   width="32"
   height="32"
   viewBox="0 0 32 32"
   version="1.1"
   id="svg4562"
   sodipodi:docname="burger-menu.svg"
   inkscape:version="1.1 (ce6663b3b7, 2021-05-25)"
   xmlns:inkscape="http://www.inkscape.org/namespaces/inkscape"
   xmlns:sodipodi="http://sodipodi.sourceforge.net/DTD/sodipodi-0.dtd"
   xmlns="http://www.w3.org/2000/svg"
   xmlns:svg="http://www.w3.org/2000/svg">
  <defs
     id="defs4566" />
  <sodipodi:namedview
     id="namedview4564"
     pagecolor="#ffffff"
     bordercolor="#666666"
     borderopacity="1.0"
     inkscape:pageshadow="2"
     inkscape:pageopacity="0.0"
     inkscape:pagecheckerboard="0"
     showgrid="false"
     inkscape:zoom="16.8"
     inkscape:cx="14.732143"
     inkscape:cy="13.035714"
     inkscape:window-width="1920"
     inkscape:window-height="1019"
     inkscape:window-x="0"
     inkscape:window-y="25"
     inkscape:window-maximized="1"
     inkscape:current-layer="svg4562"
     width="32px" />
  <path
     style="color:#000000;stroke-width:0.870702;stroke-linecap:round;stroke-linejoin:round;-inkscape-stroke:none"
     d="m 1.8547786,5.501908 a 1.1720124,1.1791288 0 0 0 0,2.3573396 H 30.211185 a 1.1720124,1.1791288 0 0 0 0,-2.3573396 z m 0,9.170085 a 1.1720124,1.1791288 0 0 0 0,2.357339 H 30.211185 a 1.1720124,1.1791288 0 0 0 0,-2.357339 z m 0,9.170085 a 1.1718952,1.1790109 0 0 0 -1.17155615,1.17867 1.1718952,1.1790109 0 0 0 1.17155615,1.178669 H 30.211185 a 1.1718952,1.1790109 0 0 0 1.171556,-1.178669 1.1718952,1.1790109 0 0 0 -1.171556,-1.17867 z"
     id="path4560" />
</svg>
