<svg width="17" height="21" viewBox="0 0 17 21" fill="none" xmlns="http://www.w3.org/2000/svg">
<path d="M17 3.9375V15.75C17 16.6819 16.5031 17.535 15.6923 18.0075V20.0156C15.6923 20.5538 15.2477 21 14.7115 21H14.0577C13.5215 21 13.0769 20.5538 13.0769 20.0156V18.375H3.92308V20.0156C3.92308 20.5538 3.47846 21 2.94231 21H2.28846C1.75231 21 1.30769 20.5538 1.30769 20.0156V18.0075C0.510001 17.535 0 16.6819 0 15.75V3.9375C0 0 3.92308 0 8.5 0C13.0769 0 17 0 17 3.9375ZM5.23077 14.4375C5.23077 13.7156 4.64231 13.125 3.92308 13.125C3.20385 13.125 2.61539 13.7156 2.61539 14.4375C2.61539 15.1594 3.20385 15.75 3.92308 15.75C4.64231 15.75 5.23077 15.1594 5.23077 14.4375ZM14.3846 14.4375C14.3846 13.7156 13.7962 13.125 13.0769 13.125C12.3577 13.125 11.7692 13.7156 11.7692 14.4375C11.7692 15.1594 12.3577 15.75 13.0769 15.75C13.7962 15.75 14.3846 15.1594 14.3846 14.4375ZM14.3846 3.9375H2.61539V11.1774H14.3846V3.9375Z" fill="#000000"/>
</svg>
