<svg width="32" height="32" viewBox="0 0 32 32" fill="none" xmlns="http://www.w3.org/2000/svg">
<path d="M16 20.75C18.6234 20.75 20.75 18.6234 20.75 16C20.75 13.3766 18.6234 11.25 16 11.25C13.3766 11.25 11.25 13.3766 11.25 16C11.25 18.6234 13.3766 20.75 16 20.75Z" fill="#C22604" fill-opacity="0.6"/>
<path d="M17.3333 3.44259V3.66274L17.5517 3.69058C20.2832 4.0388 22.8217 5.28419 24.7687 7.23126C26.7158 9.17833 27.9612 11.7168 28.3094 14.4483L28.3373 14.6667H28.5574H31.5833V17.3333H28.5574H28.3372L28.3094 17.5517C27.9615 20.2833 26.7162 22.8219 24.769 24.769C22.8219 26.7162 20.2833 27.9615 17.5517 28.3094L17.3333 28.3373V28.5574V31.5833H14.6667V28.5574V28.3373L14.4483 28.3094C11.7167 27.9615 9.17807 26.7162 7.23096 24.769C5.28385 22.8219 4.03854 20.2833 3.69058 17.5517L3.66275 17.3333H3.44258H0.416664V14.6667H3.44258H3.66273L3.69057 14.4483C4.03879 11.7168 5.28419 9.17833 7.23125 7.23126C9.17832 5.28419 11.7168 4.0388 14.4483 3.69058L14.6667 3.66274V3.44259V0.416672H17.3333V3.44259ZM6.25 16C6.25 21.3773 10.6227 25.75 16 25.75C21.3773 25.75 25.75 21.3773 25.75 16C25.75 10.6227 21.3773 6.25001 16 6.25001C10.6227 6.25001 6.25 10.6227 6.25 16Z" fill="#C22604" fill-opacity="0.6" stroke="white" stroke-width="0.5"/>
</svg>
