<svg width="24" height="20" viewBox="0 0 24 20" xmlns="http://www.w3.org/2000/svg">
<path d="M15.5 3.90244C16.6 3.90244 17.5 3.02439 17.5 1.95122C17.5 0.878049 16.6 0 15.5 0C14.4 0 13.5 0.878049 13.5 1.95122C13.5 3.02439 14.4 3.90244 15.5 3.90244ZM5 10.2439C2.2 10.2439 0 12.3902 0 15.122C0 17.8537 2.2 20 5 20C7.8 20 10 17.8537 10 15.122C10 12.3902 7.8 10.2439 5 10.2439ZM5 18.5366C3.1 18.5366 1.5 16.9756 1.5 15.122C1.5 13.2683 3.1 11.7073 5 11.7073C6.9 11.7073 8.5 13.2683 8.5 15.122C8.5 16.9756 6.9 18.5366 5 18.5366ZM10.8 8.78049L13.2 6.43902L14 7.21951C15.3 8.4878 17 9.26829 19.1 9.26829V7.31707C17.6 7.31707 16.4 6.73171 15.5 5.85366L13.6 4C13.1 3.60976 12.6 3.41463 12 3.41463C11.4 3.41463 10.9 3.60976 10.6 4L7.8 6.73171C7.4 7.12195 7.2 7.60976 7.2 8.09756C7.2 8.68293 7.4 9.17073 7.8 9.46342L11 12.1951V17.0732H13V11.0244L10.8 8.78049ZM19 10.2439C16.2 10.2439 14 12.3902 14 15.122C14 17.8537 16.2 20 19 20C21.8 20 24 17.8537 24 15.122C24 12.3902 21.8 10.2439 19 10.2439ZM19 18.5366C17.1 18.5366 15.5 16.9756 15.5 15.122C15.5 13.2683 17.1 11.7073 19 11.7073C20.9 11.7073 22.5 13.2683 22.5 15.122C22.5 16.9756 20.9 18.5366 19 18.5366Z"/>
</svg>
