<svg width="23" height="20" viewBox="0 0 23 20" fill="none" xmlns="http://www.w3.org/2000/svg">
<path d="M12.8571 0C15.5357 0 17.8125 0.972222 19.6875 2.91667C21.5625 4.86111 22.5 7.22222 22.5 10C22.5 12.7778 21.5625 15.1389 19.6875 17.0833C17.8125 19.0278 15.5357 20 12.8571 20C10.2121 20 7.93527 19.0278 6.02679 17.0833L7.5837 15.4688C9.02344 16.9965 10.7812 17.7604 12.8571 17.7604C14.933 17.7604 16.6992 17.0052 18.1557 15.4948C19.6122 13.9844 20.3404 12.1528 20.3404 10C20.3404 7.84722 19.6122 6.01562 18.1557 4.50521C16.6992 2.99479 14.933 2.23958 12.8571 2.23958C10.7812 2.23958 9.01507 2.99479 7.55859 4.50521C6.10212 6.01562 5.37388 7.84722 5.37388 10H8.58817L4.21875 14.4792L4.16853 14.3229L0 10H3.21429C3.21429 7.22222 4.15179 4.86111 6.02679 2.91667C7.90179 0.972222 10.1786 0 12.8571 0ZM11.8025 5.57292H13.4096V10.2604L17.1261 12.6042L16.3728 13.9583L11.8025 11.0938V5.57292Z" fill="#454545"/>
</svg>
