<svg width="10" height="10" viewBox="0 0 10 10" fill="none" xmlns="http://www.w3.org/2000/svg">
<path d="M5.95564 5.95557C6.99481 4.91641 8.36006 4.39682 9.7253 4.39619V6.17296C8.81556 6.17296 7.90518 6.51914 7.2122 7.21213C6.51921 7.90511 6.17303 8.81549 6.17303 9.72523H4.39626C4.39512 9.02515 4.53229 8.33175 4.7999 7.68484C5.0675 7.03793 5.46027 6.45026 5.95564 5.95557ZM0.840221 9.72523C0.840221 7.3516 1.76441 5.12059 3.44254 3.44247C5.12067 1.76434 7.35167 0.84015 9.7253 0.84015L9.7253 2.61692C7.82665 2.61692 6.04172 3.3564 4.69909 4.69902C3.35647 6.04165 2.61699 7.82658 2.61699 9.72523L0.840221 9.72523Z" fill="#ADCD00"/>
</svg>
