<svg width="23" height="30" viewBox="0 0 23 30" xmlns="http://www.w3.org/2000/svg">
<path d="M11.25 29.2761C11.2132 29.237 11.1738 29.195 11.1319 29.1502C10.8273 28.8243 10.3913 28.349 9.86767 27.7535C8.81994 26.5619 7.42396 24.8921 6.02912 22.9776C4.63317 21.0616 3.2454 18.9101 2.20837 16.7547C1.16803 14.5924 0.5 12.4655 0.5 10.5882C0.5 5.05133 5.2909 0.5 11.25 0.5C17.2091 0.5 22 5.05133 22 10.5882C22 12.4655 21.332 14.5924 20.2916 16.7547C19.2546 18.9101 17.8668 21.0616 16.4709 22.9776C15.076 24.8921 13.6801 26.5619 12.6323 27.7535C12.1087 28.349 11.6727 28.8243 11.3681 29.1502C11.3262 29.195 11.2868 29.237 11.25 29.2761ZM11.25 6.55882C8.94035 6.55882 7 8.34279 7 10.5882C7 11.667 7.45561 12.695 8.25567 13.448C9.0547 14.2 10.1323 14.6176 11.25 14.6176C12.3677 14.6176 13.4453 14.2 14.2443 13.448C15.0444 12.695 15.5 11.667 15.5 10.5882C15.5 8.34279 13.5597 6.55882 11.25 6.55882Z"/>
</svg>
