<svg width="24" height="22" viewBox="0 0 24 22" fill="#0000ff" xmlns="http://www.w3.org/2000/svg">
<path d="M23.3364 3.72686L16.1364 0.126859C15.9697 0.0434345 15.7858 0 15.5994 0C15.413 0 15.2291 0.0434345 15.0624 0.126859L8.4 3.45926L1.7364 0.126859C1.5534 0.0354159 1.35007 -0.00772686 1.14571 0.00152864C0.941346 0.0107841 0.742744 0.0721305 0.568763 0.179741C0.394782 0.287352 0.251201 0.437654 0.151655 0.616371C0.0521092 0.795089 -9.52197e-05 0.996288 1.30381e-07 1.20086V16.8009C1.30381e-07 17.2557 0.2568 17.6709 0.6636 17.8749L7.8636 21.4749C8.03032 21.5583 8.21418 21.6017 8.4006 21.6017C8.58702 21.6017 8.77088 21.5583 8.9376 21.4749L15.6 18.1425L22.2636 21.4737C22.4461 21.566 22.6493 21.6097 22.8536 21.6007C23.0579 21.5916 23.2564 21.5301 23.43 21.4221C23.784 21.2025 24 20.8173 24 20.4009V4.80086C24 4.34606 23.7432 3.93086 23.3364 3.72686ZM9.6 5.54246L14.4 3.14246V16.0593L9.6 18.4593V5.54246ZM2.4 3.14246L7.2 5.54246V18.4593L2.4 16.0593V3.14246ZM21.6 18.4593L16.8 16.0593V3.14246L21.6 5.54246V18.4593Z" fill="#000000"/>
</svg>
