<svg width="45" height="45" viewBox="0 0 45 45" fill="none" xmlns="http://www.w3.org/2000/svg">
<circle cx="22.5" cy="22.5" r="22.5" fill="#C22604"/>
<path d="M31.5 15.0188V27.675C31.5 28.6735 30.9738 29.5875 30.1154 30.0938V32.2454C30.1154 32.8219 29.6446 33.3 29.0769 33.3H28.3846C27.8169 33.3 27.3462 32.8219 27.3462 32.2454V30.4875H17.6538V32.2454C17.6538 32.8219 17.1831 33.3 16.6154 33.3H15.9231C15.3554 33.3 14.8846 32.8219 14.8846 32.2454V30.0938C14.04 29.5875 13.5 28.6735 13.5 27.675V15.0188C13.5 10.8 17.6538 10.8 22.5 10.8C27.3462 10.8 31.5 10.8 31.5 15.0188ZM19.0385 26.2688C19.0385 25.4954 18.4154 24.8625 17.6538 24.8625C16.8923 24.8625 16.2692 25.4954 16.2692 26.2688C16.2692 27.0422 16.8923 27.675 17.6538 27.675C18.4154 27.675 19.0385 27.0422 19.0385 26.2688ZM28.7308 26.2688C28.7308 25.4954 28.1077 24.8625 27.3462 24.8625C26.5846 24.8625 25.9615 25.4954 25.9615 26.2688C25.9615 27.0422 26.5846 27.675 27.3462 27.675C28.1077 27.675 28.7308 27.0422 28.7308 26.2688ZM28.7308 15.0188H16.2692V22.7759H28.7308V15.0188Z" fill="white"/>
</svg>
