<svg width="24" height="20" viewBox="0 0 24 20" xmlns="http://www.w3.org/2000/svg">
<path d="M6.84978 17.6471H15.2968V16.4706C15.2968 13.8706 17.4027 11.7647 20.0027 11.7647H20.8733L18.638 1.83529C18.5188 1.3154 18.2273 0.851108 17.8108 0.517903C17.3942 0.184699 16.8773 0.00217355 16.3439 0H12.9439C12.2968 0 11.7674 0.529412 11.7674 1.17647C11.7674 1.82353 12.2968 2.35294 12.9439 2.35294H16.3439L17.991 9.70588H17.9792C16.7186 10.0858 15.5892 10.8103 14.7183 11.7976C13.8473 12.785 13.2694 13.996 13.0498 15.2941H6.84978C6.56707 14.4925 6.00418 13.82 5.2648 13.4006C4.52543 12.9812 3.65939 12.8431 2.82625 13.0118C1.43802 13.2824 0.320371 14.4235 0.0615474 15.8118C-0.0350069 16.3222 -0.0177829 16.8476 0.111992 17.3506C0.241766 17.8536 0.480896 18.3217 0.812337 18.7217C1.14378 19.1217 1.55937 19.4436 2.02949 19.6646C2.49961 19.8855 3.01268 20.0001 3.53214 20C5.06155 20 6.35567 19.0118 6.84978 17.6471ZM3.53214 17.6471C2.88508 17.6471 2.35566 17.1176 2.35566 16.4706C2.35566 15.8235 2.88508 15.2941 3.53214 15.2941C4.17919 15.2941 4.70861 15.8235 4.70861 16.4706C4.70861 17.1176 4.17919 17.6471 3.53214 17.6471Z"/>
<path d="M20.0027 12.9414C18.0497 12.9414 16.4733 14.5179 16.4733 16.4708C16.4733 18.4238 18.0497 20.0002 20.0027 20.0002C21.9556 20.0002 23.5321 18.4238 23.5321 16.4708C23.5321 14.5179 21.9556 12.9414 20.0027 12.9414ZM20.0027 17.6473C19.3556 17.6473 18.8262 17.1179 18.8262 16.4708C18.8262 15.8238 19.3556 15.2943 20.0027 15.2943C20.6497 15.2943 21.1791 15.8238 21.1791 16.4708C21.1791 17.1179 20.6497 17.6473 20.0027 17.6473Z"/>
</svg>
