<svg width="28" height="27" viewBox="0 0 28 27" xmlns="http://www.w3.org/2000/svg">
<path d="M24.4 8.89474H17.1044L18.5643 4.46447C18.8269 3.66447 18.6943 2.77763 18.2068 2.09342C17.7193 1.40921 16.9289 1 16.0956 1H14C13.6139 1 13.2486 1.17368 13.0003 1.47368L6.8903 8.89474H3.6C2.1661 8.89474 1 10.075 1 11.5263V23.3684C1 24.8197 2.1661 26 3.6 26H20.8991C21.4281 25.9982 21.944 25.834 22.3788 25.529C22.8135 25.2241 23.1466 24.7928 23.334 24.2921L26.9181 14.6197C26.9725 14.472 27.0003 14.3156 27 14.1579V11.5263C27 10.075 25.8339 8.89474 24.4 8.89474ZM3.6 11.5263H6.2V23.3684H3.6V11.5263ZM24.4 13.9197L20.8991 23.3684H8.8V10.6868L14.6084 3.63158H16.0982L14.0676 9.79342C14.0017 9.9912 13.9833 10.202 14.014 10.4085C14.0446 10.6149 14.1235 10.8109 14.244 10.9803C14.3644 11.1497 14.5231 11.2876 14.7067 11.3826C14.8904 11.4775 15.0938 11.5268 15.3 11.5263H24.4V13.9197Z" />
</svg>
