<svg width="16" height="23" viewBox="0 0 16 23" fill="none" xmlns="http://www.w3.org/2000/svg">
<path d="M16 13.6381L15.2348 6.6799C15.1437 5.89792 14.759 5.17681 14.1551 4.65622C13.5426 4.13244 12.7563 3.84394 11.9425 3.84441H10.6256V1.33946H11.9306C12.0132 1.34079 12.0944 1.36061 12.1679 1.39743C12.3572 1.56215 12.5337 1.74048 12.6958 1.9309C12.8047 2.06912 12.9642 2.1606 13.1407 2.18604C13.3171 2.21473 13.4979 2.17522 13.645 2.07587C13.7911 1.979 13.8949 1.83211 13.9357 1.66418C13.9726 1.49482 13.9407 1.31806 13.8467 1.1713C13.7106 0.998633 13.5619 0.835849 13.4018 0.684222C13.2866 0.546882 13.1505 0.427587 12.9984 0.330503C12.9438 0.28806 12.8863 0.249323 12.8264 0.214543C12.5514 0.0750027 12.2464 0.00146275 11.9366 0H4.07063C3.76261 0.000809255 3.45938 0.0744137 3.18676 0.214543C3.12474 0.249096 3.06528 0.287837 3.0088 0.330503C2.85876 0.428057 2.72473 0.54733 2.61133 0.684222C2.44954 0.834315 2.30073 0.997227 2.16642 1.1713C2.07242 1.31806 2.04053 1.49482 2.07746 1.66418C2.11569 1.83167 2.21742 1.97878 2.36219 2.07587C2.51157 2.17501 2.69413 2.21444 2.87234 2.18604C3.04887 2.1606 3.20839 2.06912 3.31724 1.9309C3.47893 1.74194 3.65333 1.56372 3.83927 1.39743C3.9152 1.36141 3.99814 1.34166 4.0825 1.33946H5.38163V3.84441H4.07063C3.2566 3.84288 2.46994 4.13151 1.85798 4.65622C1.24999 5.17363 0.864369 5.89642 0.77834 6.6799L0.0130801 13.6381C-0.00436004 13.831 -0.00436004 14.0251 0.0130801 14.218C0.0291083 14.4142 0.0649053 14.6085 0.119889 14.7978L0.879174 17.5406C0.920473 17.6569 0.967989 17.7711 1.02154 17.8827C1.0512 17.958 1.07494 18.0392 1.11053 18.1088C1.14613 18.1784 1.19356 18.2364 1.23508 18.3059C1.27661 18.3755 1.37155 18.5321 1.4546 18.6365C1.49613 18.6887 1.5495 18.7292 1.59103 18.7756C1.68184 18.8779 1.7789 18.9747 1.88169 19.0656L2.0834 19.2105C2.17238 19.2743 2.2554 19.3439 2.35031 19.4019L1.67409 21.211C1.60173 21.3719 1.56339 21.5455 1.56138 21.7213C1.56269 21.8953 1.60108 22.0671 1.67409 22.2258C1.74628 22.3876 1.85118 22.5336 1.98253 22.6548C2.11901 22.7718 2.2757 22.8641 2.44525 22.9274C2.61675 22.9849 2.79819 23.0085 2.97911 22.997C3.1629 22.9904 3.34305 22.9449 3.50707 22.8636L3.58419 22.8172C3.74265 22.748 3.88555 22.6488 4.00466 22.5254C4.12377 22.402 4.21673 22.2568 4.27824 22.0982L4.9545 20.2891C5.00069 20.1562 5.02668 20.0175 5.03162 19.8774H10.934C10.939 20.0175 10.965 20.1562 11.0111 20.2891L11.6874 22.0982C11.748 22.2565 11.8399 22.4015 11.958 22.5249C12.0761 22.6483 12.218 22.7476 12.3755 22.8172L12.4586 22.8636C12.6205 22.945 12.7987 22.9905 12.9806 22.997C13.1635 23.009 13.347 22.9853 13.5204 22.9274C13.6881 22.864 13.8429 22.7717 13.9772 22.6548C14.1121 22.5354 14.2193 22.3891 14.2916 22.2258C14.3627 22.0667 14.3991 21.8949 14.3983 21.7213C14.3985 21.5459 14.3622 21.3723 14.2916 21.211L13.6153 19.4019C13.7059 19.3428 13.793 19.2789 13.8763 19.2105C13.9475 19.1641 14.0187 19.1177 14.084 19.0656C14.1867 18.9747 14.2838 18.8779 14.3746 18.7756C14.4161 18.7292 14.4695 18.6887 14.511 18.6365C14.5526 18.5843 14.511 18.6365 14.511 18.6365C14.5941 18.5321 14.6593 18.4161 14.7305 18.3059C14.8017 18.1958 14.8195 18.1784 14.8551 18.1088C14.8907 18.0392 14.9145 17.958 14.9441 17.8827C14.9957 17.7711 15.0413 17.6569 15.0805 17.5406L15.8458 14.7978C15.8988 14.6083 15.9326 14.414 15.9466 14.218C15.9819 14.0266 15.9997 13.8326 16 13.6381ZM10.4535 16.4968C10.4536 16.2629 10.5259 16.0345 10.6611 15.8416C10.8014 15.6482 10.9947 15.4974 11.2188 15.4067C11.3292 15.3647 11.445 15.3375 11.5628 15.3255C11.6808 15.308 11.8008 15.308 11.9187 15.3255C12.1565 15.3708 12.3753 15.4837 12.5475 15.6502C12.7159 15.8069 12.8335 16.0086 12.8857 16.2301C12.932 16.4581 12.9072 16.6944 12.8145 16.9085C12.7232 17.127 12.566 17.3131 12.3636 17.442C12.1604 17.5705 11.9235 17.6389 11.6815 17.6391C11.3599 17.6402 11.0508 17.5172 10.8213 17.297C10.7064 17.1899 10.6146 17.0613 10.5514 16.9189C10.4882 16.7764 10.4549 16.6231 10.4535 16.4678V16.4968ZM2.18424 13.0177L2.64102 8.52963C2.70813 7.94925 2.99354 7.41398 3.44183 7.02782C3.89741 6.63925 4.48042 6.42323 5.08502 6.41896H10.9281C11.5327 6.42323 12.1157 6.63925 12.5713 7.02782C13.0196 7.41398 13.305 7.94925 13.3721 8.52963L13.8289 13.0177H2.18424ZM5.55364 16.4968C5.55301 16.6516 5.52068 16.8048 5.45853 16.9472C5.39638 17.0896 5.30568 17.2184 5.1918 17.326C4.9616 17.5452 4.65299 17.6679 4.33164 17.6681C4.08957 17.6679 3.85268 17.5995 3.64944 17.471C3.44712 17.3406 3.28834 17.1551 3.19269 16.9375C3.09994 16.7234 3.07514 16.4871 3.12151 16.2591C3.17366 16.0376 3.2912 15.8359 3.45961 15.6792C3.63325 15.5114 3.85433 15.3983 4.09434 15.3545C4.21032 15.3371 4.32837 15.3371 4.44435 15.3545C4.56405 15.367 4.68162 15.3943 4.79432 15.4357C5.01672 15.5265 5.20811 15.6774 5.34604 15.8706C5.48125 16.0635 5.55361 16.2919 5.55364 16.5258V16.4968ZM9.22559 1.31046V3.81542H6.78752V1.31046H9.22559Z" fill="#000000"/>
</svg>
