<svg width="12" height="18" viewBox="0 0 12 18" fill="none" xmlns="http://www.w3.org/2000/svg">
<path d="M11.4142 5.97578V13.781C11.4142 14.3968 11.0805 14.9605 10.5361 15.2727V16.5996C10.5361 16.9552 10.2376 17.2501 9.87764 17.2501H9.43863C9.07865 17.2501 8.78012 16.9552 8.78012 16.5996V15.5156H2.63404V16.5996C2.63404 16.9552 2.33551 17.2501 1.97553 17.2501H1.53652C1.17654 17.2501 0.878013 16.9552 0.878013 16.5996V15.2727C0.342425 14.9605 0 14.3968 0 13.781V5.97578C0 3.37402 2.63404 3.37402 5.70708 3.37402C8.78012 3.37402 11.4142 3.37402 11.4142 5.97578ZM3.51205 12.9138C3.51205 12.4368 3.11694 12.0465 2.63404 12.0465C2.15113 12.0465 1.75602 12.4368 1.75602 12.9138C1.75602 13.3908 2.15113 13.781 2.63404 13.781C3.11694 13.781 3.51205 13.3908 3.51205 12.9138ZM9.65813 12.9138C9.65813 12.4368 9.26303 12.0465 8.78012 12.0465C8.29721 12.0465 7.90211 12.4368 7.90211 12.9138C7.90211 13.3908 8.29721 13.781 8.78012 13.781C9.26303 13.781 9.65813 13.3908 9.65813 12.9138ZM9.65813 5.97578H1.75602V10.7597H9.65813V5.97578Z" fill="#000000"/>
<path fill-rule="evenodd" clip-rule="evenodd" d="M3.47301 4.40376C3.22285 4.25344 3.1419 3.9288 3.29221 3.67864L5.2304 0.452955C5.38071 0.202795 5.70536 0.121851 5.95552 0.272163C6.20568 0.422474 6.28662 0.747121 6.13631 0.997282L4.19812 4.22296C4.04781 4.47312 3.72317 4.55407 3.47301 4.40376Z" fill="#000000"/>
<path fill-rule="evenodd" clip-rule="evenodd" d="M6.70762 4.29755C6.45746 4.14724 6.37652 3.8226 6.52683 3.57243L8.33762 0.558774C8.48793 0.308613 8.81258 0.227669 9.06274 0.377981C9.3129 0.528293 9.39385 0.852939 9.24353 1.1031L7.43274 4.11676C7.28243 4.36692 6.95779 4.44787 6.70762 4.29755Z" fill="#000000"/>
<path fill-rule="evenodd" clip-rule="evenodd" d="M1.87891 0.583403C1.87891 0.26821 2.13442 0.0126953 2.44961 0.0126954L10.6086 0.0126961C10.9238 0.0126961 11.1793 0.268211 11.1793 0.583404C11.1793 0.898597 10.9238 1.15411 10.6086 1.15411L2.44961 1.15411C2.13442 1.15411 1.87891 0.898596 1.87891 0.583403Z" fill="#000000"/>
</svg>
