<svg width="32" height="33" viewBox="0 0 32 33" fill="none" xmlns="http://www.w3.org/2000/svg">
<path d="M17.0593 16.0036L30.7793 2.28357C30.9197 2.14294 30.9986 1.95232 30.9986 1.75357C30.9986 1.55482 30.9197 1.3642 30.7793 1.22357C30.7103 1.15281 30.6279 1.09658 30.5369 1.05818C30.4459 1.01978 30.3481 1 30.2493 1C30.1505 1 30.0527 1.01978 29.9617 1.05818C29.8706 1.09658 29.7882 1.15281 29.7193 1.22357L15.9993 14.9436L2.27928 1.22357C2.21033 1.15281 2.12792 1.09658 2.03689 1.05818C1.94587 1.01978 1.84807 1 1.74928 1C1.65049 1 1.55269 1.01978 1.46167 1.05818C1.37064 1.09658 1.28822 1.15281 1.21928 1.22357C1.07883 1.3642 0.999939 1.55482 0.999939 1.75357C0.999939 1.95232 1.07883 2.14294 1.21928 2.28357L14.9393 16.0036L1.21928 29.7236C1.07883 29.8642 0.999939 30.0548 0.999939 30.2536C0.999939 30.4523 1.07883 30.6429 1.21928 30.7836C1.36212 30.9207 1.55128 30.9993 1.74928 31.0036C1.94728 30.9993 2.13643 30.9207 2.27928 30.7836L15.9993 17.0636L29.7193 30.7836C29.8599 30.924 30.0505 31.0029 30.2493 31.0029C30.448 31.0029 30.6387 30.924 30.7793 30.7836C30.9197 30.6429 30.9986 30.4523 30.9986 30.2536C30.9986 30.0548 30.9197 29.8642 30.7793 29.7236L17.0593 16.0036Z" fill="#000000"/>
</svg>
